<?xml version="1.0" encoding="UTF-8"?>
<svg width="39px" height="20px" viewBox="0 0 39 20" version="1.1" xmlns="http://www.w3.org/2000/svg" xmlns:xlink="http://www.w3.org/1999/xlink">
    <!-- Generator: Sketch 43.1 (39012) - http://www.bohemiancoding.com/sketch -->
    <title>mit</title>
    <desc>Created with Sketch.</desc>
    <defs></defs>
    <g id="Page-1" stroke="none" stroke-width="1" fill="none" fill-rule="evenodd">
        <g id="mit-international-copy" transform="translate(-17.000000, -18.000000)" fill-rule="nonzero" fill="#FFFFFF">
            <g id="mit" transform="translate(17.000000, 18.000000)">
                <path d="M32.0257862,19.9838057 L27.7987421,19.9838057 L27.7987421,6.4048583 L32.0339623,6.4048583 L32.0339623,19.9838057 L32.0257862,19.9838057 Z M18.1018868,19.9838057 L13.8666667,19.9838057 L13.8666667,0.032388664 L18.1018868,0.032388664 L18.1018868,19.9838057 L18.1018868,19.9838057 Z M4.22704403,19.9838057 L0,19.9838057 L0,0.032388664 L4.23522013,0.032388664 L4.23522013,19.9838057 L4.22704403,19.9838057 Z M11.1358491,13.611336 L6.90062893,13.611336 L6.90062893,0.032388664 L11.1358491,0.032388664 L11.1358491,13.611336 L11.1358491,13.611336 Z M25.0106918,4.01619433 L20.7754717,4.01619433 L20.7754717,0.04048583 L25.0106918,0.04048583 L25.0106918,4.01619433 L25.0106918,4.01619433 Z M27.7987421,0.032388664 L38.9345912,0.032388664 L38.9345912,4.00809717 L27.7987421,4.00809717 L27.7987421,0.032388664 L27.7987421,0.032388664 Z" id="Shape"></path>
                <polygon id="Path" fill-opacity="0.5" points="20.7836478 6.4048583 25.0188679 6.4048583 25.0188679 19.9838057 20.7836478 19.9838057"></polygon>
            </g>
        </g>
    </g>
</svg>